<svg id="Layer_1" data-name="Layer 1" xmlns="http://www.w3.org/2000/svg" viewBox="0 0 891.17 265.32"><defs><style>.cls-1{fill:#fff;}</style></defs><path class="cls-1" d="M94.41,669V444.79a25.43,25.43,0,0,1,25.43-25.43h75.65q40.68,0,70.26,15.1t45.6,43.14q16,28,16,66.56,0,38.22-16.18,66.25a109.51,109.51,0,0,1-45.76,43.3Q235.86,669,195.49,669Zm57.94-49.3h43.14q36.66,0,55.31-21t18.65-54.54q0-33.9-18.65-54.7t-55.31-20.8H152.35Z" transform="translate(-94.41 -407.34)"/><path class="cls-1" d="M388.7,468.35a30.49,30.49,0,1,1,21.57-8.93A29.35,29.35,0,0,1,388.7,468.35ZM360.35,669V484.07h56.7V669Z" transform="translate(-94.41 -407.34)"/><path class="cls-1" d="M470.36,669V539.54H442.62V484.07h56.7v30.82h12.95a81.42,81.42,0,0,1,27.27-25.12q16.17-9.09,41.44-9.09,39.45,0,60.56,21.26t21.1,57V669h-56.7V570.05q0-19.11-10-29t-29.43-9.86q-19.41,0-29.43,9.86t-10,29V669Z" transform="translate(-94.41 -407.34)"/><path class="cls-1" d="M727.66,468.35a30.51,30.51,0,1,1,21.57-8.93A29.38,29.38,0,0,1,727.66,468.35ZM699.31,669V484.07H756V669Z" transform="translate(-94.41 -407.34)"/><path class="cls-1" d="M885.13,672.66q-30.51,0-53.31-11.86a85,85,0,0,1-35.29-33.59q-12.48-21.74-12.48-51t12.48-50.85a84.34,84.34,0,0,1,35.29-33.28q22.8-11.7,53.62-11.71t53.15,11.71a84.08,84.08,0,0,1,34.67,33.28q12.32,21.58,12.33,51.16,0,29.28-12.33,51A83.47,83.47,0,0,1,938.44,661Q915.94,672.67,885.13,672.66Zm0-49.3q21.25,0,32.51-12.79t11.25-34.36q0-21.57-11.25-34.05t-32.51-12.48q-21.57,0-33,12.48t-11.41,34.05q0,21.57,11.41,34.36T885.13,623.36Z" transform="translate(-94.41 -407.34)"/></svg>